<?xml version="1.0" encoding="utf-8" ?><svg xmlns="http://www.w3.org/2000/svg" xmlns:xlink="http://www.w3.org/1999/xlink" width="1024" height="1024" viewBox="0 0 1024 1024"><path fill="#0A8933" d="M632.029 258.227C645.014 257.135 673.354 258.595 685.82 260.361C725.02 265.916 758.913 291.413 781.619 322.954C788.71 332.803 794.962 344.224 801.037 354.906L820.918 389.566L891.111 511.993L954.782 623.171C957.01 627.153 959.379 631.071 961.579 635.051C970.761 651.666 984.698 668.492 981.237 688.685C979.542 699.171 973.67 708.523 964.962 714.605C960.584 717.615 952.388 721.065 947.259 721.539C923.85 723.705 885.055 722.903 862.331 719.518C830.667 714.803 789.044 687.172 770.882 660.971L644.292 660.968C624.767 660.958 604.073 660.602 584.704 661.18C573.024 682.23 558.373 701.489 541.203 718.363C502.377 756.423 462.505 765.589 410.125 765.108C375.019 764.676 339.245 768.53 306.842 754.14C270.145 737.843 250.886 713.229 236.192 677.391C232.981 680.967 227.68 685.474 223.875 688.619C199.471 708.708 169.228 720.374 137.655 721.877C123.331 722.693 84.6959 723.634 72.3078 720.428C66.2593 718.891 60.6724 715.913 56.0237 711.75C42.1299 699.142 39.3108 677.484 47.7901 661.137C53.5848 649.966 60.4849 639.248 66.655 628.208L121.232 532.587L191.697 409.474C210.381 376.561 234.378 328.819 259.507 301.856C277.242 282.954 300.134 269.669 325.345 263.649C349.219 257.724 365.294 258.437 389.54 258.456L435.341 258.484L565.373 258.444C586.822 258.417 610.846 258.921 632.029 258.227ZM394.457 718.83C409.89 718.31 425.621 718.993 440.695 718.492C468.525 717.567 499.151 701.157 517.842 680.698C533.428 663.637 546.489 635.856 558.724 615.527L746.238 615.012C740.434 606.102 735.442 596.392 729.513 587.241C710.978 558.634 688.617 537.897 654.315 530.261C638.792 526.806 628.598 528.284 613.913 527.976L607.007 527.972C613.591 514.792 622.29 500.819 629.612 487.853C644.961 460.675 660.587 434.274 674.339 406.235C689.777 432.529 704.971 458.965 719.919 485.541L765.248 564.199L786.612 601.761C794.076 614.928 801.411 629.112 811.289 640.433C823.643 654.593 843.42 668.709 861.992 673.059C884.596 678.354 912.34 676.148 935.704 676.391C923.511 654.11 908.776 630.55 895.778 608.385C869.356 563.494 843.209 518.443 817.337 473.233L767.775 386.396C760.029 372.932 752.45 356.541 742.638 344.742C723.591 321.839 698.04 304.907 667.443 307.772C625.989 315.3 616.429 334.964 597.455 368.864C591.832 378.775 586.116 388.633 580.308 398.437L502.644 532.295L427.8 660.972L407.422 696.156C403.453 702.952 397.912 711.901 394.457 718.83ZM370.294 304.237C342.955 304.793 325.46 308.067 302.434 324.653C277.572 342.562 269.276 363.427 254.549 388.638L208.07 469.311L128.489 607.101L103.305 651.022C98.6853 659.033 92.887 668.437 88.6678 676.53C123.56 675.223 150.161 681.653 182.815 662.982C192.508 657.522 201.306 650.607 208.902 642.478C210.277 640.994 211.638 639.498 212.985 637.99C222.964 625.237 228.836 613.916 236.797 599.933L259.413 560.517L350.042 402.822C349.413 429.349 350.687 456.025 350.427 482.348C361.112 466.074 372.31 445.363 382.064 428.246L432.907 339.584C438.478 330 447.38 313.426 453.248 304.494L394.351 304.288C386.735 304.282 377.772 304.014 370.294 304.237ZM351.439 549.291C351.665 527.839 351.525 506.385 351.019 484.938C337.776 505.101 325.028 527.077 312.497 547.801C299.741 568.897 282.824 592.078 275.722 615.488C271.975 627.771 271.389 640.802 274.019 653.373C276.007 663.162 280.309 673.926 285.984 682.191C304.301 707.743 323.975 715.694 354.171 719.28C359.708 707.805 371.1 689.24 377.699 677.817L419.827 604.846L541.82 393.385C558.329 364.483 577.819 333.215 593.102 304.159C585.446 304.44 578.346 304.35 570.697 304.183C566.984 304.102 559.314 303.821 555.705 304.206C519.515 307.561 494.966 319.547 471.231 347.576C462.532 357.85 454.089 373.734 447.225 385.521L420.741 430.712C397.909 470.178 373.769 509.625 351.439 549.291Z"/></svg>